<svg width="80" height="80" viewBox="0 0 80 80" fill="none" xmlns="http://www.w3.org/2000/svg">
<circle cx="40" cy="40" r="40" fill="white"/>
<rect width="50" height="50" transform="translate(17 16)" fill="white"/>
<path d="M61.3125 44.5837L59.2501 42.5212C58.6042 41.8753 57.7481 41.5212 56.8376 41.5212C56.8356 41.5212 56.8336 41.5212 56.8336 41.5212C55.9211 41.5212 55.0603 41.8795 54.4186 42.5274L42.9791 54.0191C42.6854 54.3107 42.5229 54.7087 42.5229 55.1212V59.7503C42.5229 60.6128 43.2229 61.3128 44.0854 61.3128H48.7169C49.1294 61.3128 49.5269 61.1483 49.8186 60.8566L61.3105 49.417C61.9584 48.7733 62.3124 47.9149 62.3145 47.0024C62.3124 46.0899 61.9584 45.2316 61.3125 44.5837ZM56.8356 44.6462C56.8898 44.6462 56.9687 44.6607 57.0396 44.7315L59.102 46.7941C59.1729 46.8649 59.1875 46.9462 59.1875 47.0003C59.1875 47.0545 59.1729 47.1337 59.102 47.2045L57.7771 48.5232L55.3102 46.0566L56.6291 44.7315C56.702 44.6607 56.7814 44.6462 56.8356 44.6462ZM48.0689 58.1878H45.6458V55.7649L53.1064 48.2711L55.5625 50.7274L48.0689 58.1878ZM37.8333 56.1045H29.5C26.2146 56.1045 24.8125 54.7024 24.8125 51.417V26.417C24.8125 23.1316 26.2146 21.7295 29.5 21.7295H40.4375V26.417C40.4375 31.4545 43.2125 34.2295 48.25 34.2295H52.9375V36.8337C52.9375 37.6962 53.6375 38.3962 54.5 38.3962C55.3625 38.3962 56.0625 37.6962 56.0625 36.8337V32.667C56.0625 32.2524 55.898 31.8545 55.6042 31.5628L43.1042 19.0628C42.8105 18.7691 42.4146 18.6045 42 18.6045H29.5C24.4625 18.6045 21.6875 21.3795 21.6875 26.417V51.417C21.6875 56.4545 24.4625 59.2295 29.5 59.2295H37.8333C38.6958 59.2295 39.3958 58.5295 39.3958 57.667C39.3958 56.8045 38.6958 56.1045 37.8333 56.1045ZM43.5625 26.417V23.9399L50.727 31.1045H48.25C44.9646 31.1045 43.5625 29.7024 43.5625 26.417ZM31.5833 37.3545C30.7208 37.3545 30.0208 38.0545 30.0208 38.917C30.0208 39.7795 30.7208 40.4795 31.5833 40.4795H46.1667C47.0292 40.4795 47.7292 39.7795 47.7292 38.917C47.7292 38.0545 47.0292 37.3545 46.1667 37.3545H31.5833ZM39.9167 45.6878H31.5833C30.7208 45.6878 30.0208 46.3878 30.0208 47.2503C30.0208 48.1128 30.7208 48.8128 31.5833 48.8128H39.9167C40.7792 48.8128 41.4792 48.1128 41.4792 47.2503C41.4792 46.3878 40.7792 45.6878 39.9167 45.6878Z" fill="#0D99FF"/>
</svg>
