<svg width="80" height="80" viewBox="0 0 80 80" fill="none" xmlns="http://www.w3.org/2000/svg">
<ellipse cx="39.9995" cy="40.4117" rx="38.0952" ry="37.6471" fill="#0D99FF"/>
<path fill-rule="evenodd" clip-rule="evenodd" d="M39.9993 2.5C18.8202 2.5 1.66602 19.6542 1.66602 40.8333C1.66602 57.7958 12.6389 72.1229 27.8764 77.2021C29.7931 77.5375 30.5118 76.3875 30.5118 75.3812C30.5118 74.4708 30.4639 71.4521 30.4639 68.2417C20.8327 70.0146 18.341 65.8937 17.5743 63.7375C17.1431 62.6354 15.2743 59.2333 13.6452 58.3229C12.3035 57.6042 10.3868 55.8312 13.5973 55.7833C16.616 55.7354 18.7723 58.5625 19.491 59.7125C22.941 65.5104 28.4514 63.8812 30.6556 62.875C30.991 60.3833 31.9973 58.7062 33.0993 57.7479C24.5702 56.7896 15.6577 53.4833 15.6577 38.8208C15.6577 34.6521 17.1431 31.2021 19.5868 28.5187C19.2035 27.5604 17.8618 23.6312 19.9702 18.3604C19.9702 18.3604 23.1806 17.3542 30.5118 22.2896C33.5785 21.4271 36.8368 20.9958 40.0952 20.9958C43.3535 20.9958 46.6118 21.4271 49.6785 22.2896C57.0098 17.3062 60.2202 18.3604 60.2202 18.3604C62.3285 23.6312 60.9868 27.5604 60.6035 28.5187C63.0473 31.2021 64.5327 34.6042 64.5327 38.8208C64.5327 53.5312 55.5723 56.7896 47.0431 57.7479C48.4327 58.9458 49.6306 61.2458 49.6306 64.8396C49.6306 69.9667 49.5827 74.0875 49.5827 75.3812C49.5827 76.3875 50.3014 77.5854 52.2181 77.2021C67.3598 72.1229 78.3327 57.7479 78.3327 40.8333C78.3327 19.6542 61.1785 2.5 39.9993 2.5V2.5Z" fill="white"/>
</svg>
