<svg width="80" height="80" viewBox="0 0 80 80" fill="none" xmlns="http://www.w3.org/2000/svg">
<g clip-path="url(#clip0_472_9671)">
<path d="M40 80C62.0914 80 80 62.0914 80 40C80 17.9086 62.0914 0 40 0C17.9086 0 0 17.9086 0 40C0 62.0914 17.9086 80 40 80Z" fill="white"/>
<path d="M29.1349 17.8643H17.4844V61.3594H29.1349V17.8643Z" fill="#0D99FF"/>
<path fill-rule="evenodd" clip-rule="evenodd" d="M42.4372 41.8722C42.4314 35.0279 44.8196 29.3222 46.9763 26.207L50.9228 28.9392C49.0578 31.6331 46.7248 37.3123 47.3371 44.0551C47.6925 47.9692 49.0421 52.2793 52.1072 56.6295H62.9302V61.4295H49.7026L48.9823 60.484C45.4468 55.8437 43.5864 51.1232 42.8388 46.6722H35.8156V60.1945H31.0156V41.8722H42.4372Z" fill="#0D99FF"/>
<path fill-rule="evenodd" clip-rule="evenodd" d="M52.5564 35.7124L45.6719 31.1227L48.3344 27.1289L60.0907 34.9664L50.642 44.4151L47.2479 41.021L52.5564 35.7124Z" fill="#0D99FF"/>
<path d="M47.7852 27.1846C50.3589 27.1846 52.4454 25.0982 52.4454 22.5245C52.4454 19.9507 50.3589 17.8643 47.7852 17.8643C45.2114 17.8643 43.125 19.9507 43.125 22.5245C43.125 25.0982 45.2114 27.1846 47.7852 27.1846Z" fill="#0D99FF"/>
<path d="M29.1406 29.9033H42.7329C42.7329 29.9033 39.6261 35.3402 39.6261 39.612C32.6357 39.612 29.1406 39.612 29.1406 39.612V29.9033Z" fill="#8D8D8D"/>
</g>
<defs>
<clipPath id="clip0_472_9671">
<rect width="80" height="80" fill="white"/>
</clipPath>
</defs>
</svg>
